<?xml version="1.0" standalone="no"?>
<svg viewBox="0 0 200 200" xmlns="http://www.w3.org/2000/svg">
  <path fill="#2D3092" d="M40,-67.2C49.2,-64.1,52,-47.9,58.3,-34.5C64.6,-21.1,74.4,-10.5,73.2,-0.7C72,9.1,59.7,18.2,48.5,23.3C37.4,28.3,27.4,29.3,19.5,37.2C11.6,45.1,5.8,60,-3.1,65.4C-12,70.7,-23.9,66.4,-32,58.6C-40.1,50.8,-44.4,39.4,-47.1,29.1C-49.9,18.7,-51.2,9.4,-53.4,-1.2C-55.5,-11.8,-58.4,-23.6,-51.6,-27.1C-44.9,-30.6,-28.5,-25.7,-18.3,-28.3C-8.1,-30.8,-4,-40.7,5.7,-50.6C15.5,-60.5,30.9,-70.4,40,-67.2Z" transform="translate(100 100)" />
</svg>
