<!--?xml version="1.0" standalone="no"?-->
              <svg id="sw-js-blob-svg" viewBox="0 0 100 100" xmlns="http://www.w3.org/2000/svg" version="1.1">
                    <defs> 
                        <linearGradient id="sw-gradient" x1="0" x2="1" y1="1" y2="0">
                            <stop id="stop1" stop-color="rgba(45, 48, 146, 1)" offset="0%"></stop>
                            <stop id="stop2" stop-color="rgba(30, 32, 99, 1)" offset="100%"></stop>
                        </linearGradient>
                    </defs>
                <path fill="url(#sw-gradient)" d="M17.8,-22.7C23.1,-24.2,27.6,-19.4,26.2,-14.4C24.8,-9.3,17.5,-3.9,16.2,2C14.9,8,19.6,14.5,19.5,19.7C19.4,24.9,14.5,28.7,8.6,31.2C2.8,33.8,-3.9,35,-9.9,33.4C-15.9,31.8,-21.2,27.4,-24.8,22.1C-28.4,16.9,-30.3,10.8,-29.7,5.2C-29.1,-0.4,-25.9,-5.4,-20.9,-6.7C-15.8,-8,-8.9,-5.5,-5.1,-4.7C-1.3,-3.9,-0.7,-4.7,2.8,-9C6.2,-13.3,12.4,-21.2,17.8,-22.7Z" width="100%" height="100%" transform="translate(50 50)" stroke-width="0" style="transition: all 0.3s ease 0s;" stroke="url(#sw-gradient)"></path>
              </svg>